<svg width="4096" height="1064" viewBox="0 0 4096 1064" fill="none" xmlns="http://www.w3.org/2000/svg">
<g clip-path="url(#clip0_63863_22)">
<path d="M1287.99 64.1452V1011.56L1230.7 1072.33V3.3772L1287.99 64.1452Z" fill="#706F6F"/>
<path d="M1292.05 60.7431V1003.35L1235.05 1063.81V0.287354L1292.05 60.7431Z" fill="#706F6F"/>
<path fill-rule="evenodd" clip-rule="evenodd" d="M250.388 531.677C251.917 725.211 411.375 824.367 500.258 838.521C311.655 871.805 133.909 739.538 129.397 531.677H250.388Z" fill="#706F6F"/>
<path fill-rule="evenodd" clip-rule="evenodd" d="M0.000140913 531.916L121.41 531.724C122.028 837.438 391.301 962.788 502.797 969.041C225.463 1008.47 -0.205852 786.989 0.000140913 531.916Z" fill="#FFCC00"/>
<path fill-rule="evenodd" clip-rule="evenodd" d="M753.484 532.421C751.956 338.887 592.504 239.731 503.614 225.571C692.224 192.293 869.97 324.554 874.482 532.421H753.484Z" fill="#FFCC00"/>
<path fill-rule="evenodd" clip-rule="evenodd" d="M1003.87 532.182L882.462 532.368C881.851 226.661 612.578 101.31 501.076 95.0509C778.409 55.6197 1004.07 277.102 1003.87 532.182H1003.87Z" fill="#706F6F"/>
<path fill-rule="evenodd" clip-rule="evenodd" d="M368.94 537.85C368.94 463.38 429.237 403.011 503.614 403.011C577.991 403.011 638.287 463.38 638.287 537.85C638.287 612.32 577.991 672.69 503.614 672.69C429.237 672.69 368.94 612.32 368.94 537.85Z" fill="#FFCC00"/>
<path d="M1679.36 333.478H1641.04V232.375H1561.46V333.478H1523.14V88.705H1561.46V191.449H1641.04V88.705H1679.36V333.485V333.478Z" fill="#706F6F"/>
<path d="M1871.36 264.716H1772.44V281.502L1772.81 283.548C1774.51 286.552 1776.88 289.482 1779.92 292.346C1782.96 295.21 1785.34 296.645 1787.04 296.645H1822.44C1826.09 296.645 1830.6 293.104 1835.95 286L1837.05 284.366L1871 295.828C1869.29 300.473 1865.83 305.995 1860.59 312.407C1855.36 318.82 1851.04 323.398 1847.63 326.122C1839.35 332.402 1830.6 335.538 1821.35 335.538H1787.04C1776.57 335.538 1767.69 332.674 1760.39 326.94C1753.57 321.212 1747.73 314.66 1742.87 307.291C1738.25 300.2 1735.93 291.735 1735.93 281.914V208.234C1735.93 198.686 1738.25 190.366 1742.87 183.263C1747.73 175.893 1753.57 169.348 1760.39 163.614C1767.93 157.613 1776.82 154.61 1787.04 154.61H1820.62C1830.84 154.61 1839.73 157.613 1847.27 163.614C1854.81 169.893 1860.65 176.445 1864.79 183.263C1869.17 189.815 1871.36 198.141 1871.36 208.234V264.723V264.716ZM1834.86 228.282V209.045C1834.86 207.683 1834.74 206.865 1834.5 206.586C1831.82 201.676 1827.8 197.45 1822.45 193.895C1821.96 193.629 1821.23 193.483 1820.26 193.483H1787.04C1785.33 193.483 1782.96 194.918 1779.92 197.782C1776.88 200.646 1774.51 203.583 1772.81 206.58L1772.44 209.038V228.276H1834.86V228.282Z" fill="#706F6F"/>
<path d="M2050.59 194.306L2016.64 205.769C2011.04 197.582 2005.56 193.489 2000.22 193.489H1980.51C1973.93 193.489 1966.51 199.363 1958.24 211.092V333.478H1921.74V193.077L1918.82 156.65H1954.23L1956.05 166.471C1965.78 158.557 1973.58 154.603 1979.42 154.603H2001.32C2010.56 154.603 2019.57 158.018 2028.33 164.836C2032.22 168.112 2036.48 172.684 2041.11 178.551C2045.73 184.425 2048.9 189.675 2050.6 194.313L2050.59 194.306Z" fill="#706F6F"/>
<path d="M2296.97 333.478H2260.47V209.045C2260.47 208.228 2260.35 207.41 2260.11 206.586C2257.91 201.948 2254.14 197.722 2248.79 193.894C2248.3 193.629 2247.33 193.482 2245.87 193.482H2229.08C2223.97 193.482 2216.91 198.945 2207.91 209.856V333.472H2171.41V209.038C2171.41 207.948 2171.28 207.131 2171.04 206.58C2169.1 202.486 2165.08 198.26 2159 193.888C2158.5 193.622 2157.53 193.476 2156.07 193.476H2139.28C2137.82 193.476 2136.3 193.821 2134.72 194.499C2133.13 195.184 2131.73 195.868 2130.52 196.546C2129.29 197.23 2127.96 198.327 2126.5 199.822C2125.04 201.323 2123.94 202.48 2123.22 203.304C2122.5 204.128 2121.45 205.423 2120.12 207.191C2118.77 208.972 2117.98 209.995 2117.74 210.261V333.472H2081.24V193.07L2077.6 156.643H2113.37L2115.19 166.059C2124.68 158.424 2132.35 154.596 2138.19 154.596H2156.44C2166.66 154.596 2175.55 157.6 2183.09 163.6C2186.01 166.059 2189.54 169.607 2193.68 174.245L2201.71 167.288C2211.68 158.836 2220.45 154.596 2227.99 154.596H2246.24C2256.46 154.596 2265.35 157.6 2272.89 163.6C2280.43 169.88 2286.27 176.431 2290.41 183.249C2294.79 189.801 2296.99 198.127 2296.99 208.221V333.478H2296.97Z" fill="#706F6F"/>
<path d="M2441.15 222.554V208.64C2441.15 207.55 2441.03 206.865 2440.79 206.593C2438.35 201.955 2434.46 197.862 2429.11 194.313C2428.13 193.768 2427.4 193.496 2426.91 193.496H2394.79C2392.84 193.496 2390.35 194.998 2387.31 198.001C2384.27 201.005 2381.89 203.729 2380.19 206.188L2345.88 194.725C2347.58 190.366 2351.11 184.904 2356.46 178.352C2361.81 171.8 2366.19 167.169 2369.61 164.437C2378.12 157.886 2386.88 154.616 2395.89 154.616H2427.28C2437.5 154.616 2446.38 157.62 2453.93 163.62C2461.96 170.172 2467.8 176.584 2471.45 182.857C2475.58 189.137 2477.65 197.596 2477.65 208.234V297.469L2481.3 333.492H2445.17L2443.34 325.305C2434.82 332.129 2427.28 335.538 2420.71 335.538H2390.78C2380.8 335.538 2372.03 332.541 2364.5 326.534C2357.93 321.079 2352.2 314.666 2347.34 307.297C2342.96 300.479 2340.77 292.153 2340.77 282.325V274.956C2340.77 265.135 2342.96 256.809 2347.34 249.984C2351.23 243.712 2356.95 237.572 2364.5 231.565C2372.04 225.564 2380.8 222.561 2390.78 222.561H2441.15V222.554ZM2441.15 280.266V258.982H2391.14C2390.17 258.982 2389.32 259.254 2388.59 259.799C2384.21 262.803 2380.56 267.168 2377.64 272.896C2377.4 273.448 2377.28 273.853 2377.28 274.126V281.9L2377.64 283.129C2380.8 289.137 2384.58 293.363 2388.96 295.821C2389.93 296.373 2390.66 296.639 2391.15 296.639H2419.62C2421.33 296.639 2424.92 294.459 2430.4 290.087C2435.87 285.728 2439.46 282.452 2441.17 280.266H2441.15Z" fill="#706F6F"/>
<path d="M2667.1 333.478H2630.6V209.045C2630.6 207.955 2630.48 207.138 2630.24 206.586C2628.04 201.948 2624.27 197.722 2618.92 193.894C2618.67 193.629 2617.7 193.482 2616 193.482H2590.45C2585.34 193.482 2578.16 199.078 2568.92 210.268V333.478H2532.42V193.077L2528.77 156.65H2564.54L2566.37 166.065C2575.85 158.43 2583.52 154.603 2589.36 154.603H2616.37C2626.59 154.603 2635.48 157.606 2643.02 163.607C2650.56 169.886 2656.4 176.438 2660.54 183.256C2664.92 189.808 2667.12 198.134 2667.12 208.228V333.485L2667.1 333.478Z" fill="#706F6F"/>
<path d="M2970.07 333.478H2931.74V232.375H2852.17V333.478H2813.84V88.705H2852.17V191.449H2931.74V88.705H2970.07V333.485V333.478Z" fill="#706F6F"/>
<path d="M3161.71 281.907C3161.71 292.28 3159.63 300.599 3155.5 306.879C3151.12 314.248 3145.28 320.939 3137.98 326.933C3130.67 332.661 3121.79 335.532 3111.33 335.532H3077.02C3066.8 335.532 3058.03 332.668 3050.74 326.933C3048.06 324.753 3044.77 321.477 3040.88 317.112C3036.99 312.753 3034.31 309.337 3032.85 306.879C3028.71 300.606 3026.65 292.286 3026.65 281.907V208.228C3026.65 197.862 3028.71 189.542 3032.85 183.256C3036.74 176.704 3042.71 170.159 3050.74 163.607C3058.28 157.606 3067.04 154.603 3077.02 154.603H3111.34C3121.56 154.603 3130.44 157.606 3137.98 163.607C3145.53 169.886 3151.37 176.438 3155.51 183.256C3159.64 189.535 3161.71 197.855 3161.71 208.228V281.907H3161.71ZM3063.15 209.457V283.953C3063.15 286.957 3067.16 291.05 3075.2 296.233C3075.68 296.506 3076.41 296.645 3077.39 296.645H3110.97C3111.46 296.645 3112.19 296.38 3113.16 295.828C3120.95 290.917 3124.97 286.964 3125.21 283.96V209.464C3125.21 208.646 3125.09 207.829 3124.85 207.005C3121.93 201.549 3117.91 197.184 3112.8 193.908C3112.31 193.642 3111.7 193.496 3110.97 193.496H3077.39C3076.66 193.496 3076.05 193.635 3075.56 193.908C3070.21 197.456 3066.19 201.829 3063.51 207.005L3063.15 209.464V209.457Z" fill="#706F6F"/>
<path d="M3252.96 333.478H3216.09L3211.72 301.961V88.705H3248.22V297.463L3252.96 333.485V333.478Z" fill="#706F6F"/>
<path d="M3344.22 333.478H3307.35L3302.97 301.961V88.705H3339.47V297.463L3344.22 333.485V333.478Z" fill="#706F6F"/>
<path d="M3527.82 264.716H3428.9V281.502L3429.26 283.548C3430.97 286.552 3433.34 289.482 3436.38 292.346C3439.42 295.21 3441.8 296.645 3443.5 296.645H3478.91C3482.56 296.645 3487.06 293.104 3492.41 286L3493.51 284.366L3527.46 295.828C3525.75 300.473 3522.28 305.995 3517.05 312.407C3511.81 318.82 3507.5 323.398 3504.09 326.122C3495.82 332.402 3487.06 335.538 3477.81 335.538H3443.5C3433.03 335.538 3424.15 332.674 3416.85 326.94C3410.03 321.212 3404.19 314.66 3399.33 307.291C3394.7 300.2 3392.39 291.735 3392.39 281.914V208.234C3392.39 198.686 3394.7 190.366 3399.33 183.263C3404.19 175.893 3410.03 169.348 3416.85 163.614C3424.39 157.613 3433.28 154.61 3443.5 154.61H3477.08C3487.3 154.61 3496.19 157.613 3503.73 163.614C3511.27 169.893 3517.11 176.445 3521.25 183.263C3525.63 189.815 3527.82 198.141 3527.82 208.234V264.723V264.716ZM3491.32 228.282V209.045C3491.32 207.683 3491.2 206.865 3490.96 206.586C3488.28 201.676 3484.26 197.45 3478.91 193.895C3478.42 193.629 3477.69 193.483 3476.72 193.483H3443.5C3441.79 193.483 3439.42 194.918 3436.38 197.782C3433.34 200.646 3430.97 203.583 3429.26 206.58L3428.9 209.038V228.276H3491.32V228.282Z" fill="#706F6F"/>
<path d="M3707.04 194.306L3673.09 205.769C3667.49 197.582 3662.02 193.489 3656.67 193.489H3636.96C3630.39 193.489 3622.96 199.363 3614.69 211.092V333.478H3578.19V193.077L3575.27 156.65H3610.69L3612.51 166.471C3622.24 158.557 3630.04 154.603 3635.88 154.603H3657.78C3667.02 154.603 3676.03 158.018 3684.79 164.836C3688.68 168.112 3692.94 172.684 3697.57 178.551C3702.19 184.425 3705.36 189.675 3707.06 194.313L3707.04 194.306Z" fill="#706F6F"/>
<path d="M3776.02 131.685H3736.97V87.8877H3776.02V131.685ZM3774.93 333.478H3738.43V156.65H3774.93V333.478Z" fill="#706F6F"/>
<path d="M3872.76 195.536V278.631C3872.76 279.727 3872.87 280.545 3873.12 281.09C3874.58 283.821 3876.77 286.758 3879.69 289.887C3882.62 293.031 3885.17 294.592 3887.36 294.592H3917.65V333.478H3887C3876.78 333.478 3868.01 330.614 3860.71 324.88C3854.63 320.242 3848.79 313.557 3843.19 304.825C3838.57 297.19 3836.25 288.592 3836.25 279.036V195.536H3811.8V156.65H3836.25V88.6984H3872.76V156.65H3918.02V195.536H3872.76Z" fill="#706F6F"/>
<path d="M4057.09 333.478V209.45L4056.73 207.404C4053.81 201.948 4049.91 197.443 4045.05 193.894C4044.8 193.629 4044.07 193.482 4042.85 193.482H4017.67C4015.48 193.482 4011.83 195.669 4006.72 200.034C4001.61 204.4 3997.83 208.361 3995.4 211.902V333.472H3958.9V88.705H3995.4V164.431C4003.67 157.879 4010.85 154.61 4016.94 154.61H4043.22C4053.44 154.61 4062.2 157.613 4069.5 163.613C4075.58 168.258 4081.42 174.943 4087.02 183.668C4091.4 190.765 4093.59 199.091 4093.59 208.64V333.485H4057.09V333.478Z" fill="#706F6F"/>
<path d="M1661.48 665.732H1517.65V630.939L1613.65 461.885H1517.65V420.952H1661.48V456.563L1566.93 624.799H1661.48V665.732Z" fill="#706F6F"/>
<path d="M1841.8 596.964H1742.88V613.749L1743.24 615.796C1744.94 618.799 1747.32 621.729 1750.36 624.593C1753.4 627.457 1755.77 628.893 1757.48 628.893H1792.88C1796.53 628.893 1801.03 625.351 1806.39 618.247L1807.49 616.613L1841.43 628.075C1839.73 632.72 1836.26 638.242 1831.03 644.655C1825.79 651.067 1821.47 655.645 1818.07 658.37C1809.79 664.649 1801.03 667.786 1791.79 667.786H1757.48C1747.01 667.786 1738.13 664.922 1730.83 659.187C1724.01 653.459 1718.17 646.907 1713.31 639.538C1708.68 632.448 1706.37 623.982 1706.37 614.161V540.482C1706.37 530.933 1708.68 522.613 1713.31 515.51C1718.17 508.141 1724.01 501.595 1730.83 495.861C1738.37 489.86 1747.26 486.857 1757.48 486.857H1791.06C1801.28 486.857 1810.16 489.86 1817.71 495.861C1825.25 502.14 1831.09 508.692 1835.23 515.51C1839.61 522.062 1841.8 530.388 1841.8 540.482V596.97V596.964ZM1805.3 560.529V541.292C1805.3 539.93 1805.17 539.113 1804.93 538.834C1802.26 533.923 1798.24 529.697 1792.89 526.142C1792.39 525.876 1791.66 525.73 1790.69 525.73H1757.48C1755.77 525.73 1753.4 527.165 1750.36 530.029C1747.32 532.893 1744.94 535.83 1743.24 538.827L1742.88 541.286V560.523H1805.3V560.529Z" fill="#706F6F"/>
<path d="M2027.59 665.732H1991.09V541.299C1991.09 540.209 1990.97 539.392 1990.73 538.84C1988.53 534.202 1984.76 529.976 1979.41 526.149C1979.16 525.883 1978.19 525.737 1976.49 525.737H1950.94C1945.83 525.737 1938.65 531.332 1929.41 542.522V665.732H1892.91V525.331L1889.26 488.904H1925.03L1926.86 498.319C1936.34 490.684 1944.01 486.857 1949.85 486.857H1976.87C1987.09 486.857 1995.97 489.86 2003.51 495.861C2011.05 502.14 2016.89 508.692 2021.03 515.51C2025.41 522.062 2027.61 530.388 2027.61 540.482V665.739L2027.59 665.732Z" fill="#706F6F"/>
<path d="M2126.15 527.783V610.878C2126.15 611.975 2126.27 612.792 2126.52 613.337C2127.98 616.068 2130.16 619.005 2133.09 622.135C2136 625.278 2138.56 626.839 2140.76 626.839H2171.05V665.725H2140.39C2130.17 665.725 2121.41 662.862 2114.11 657.127C2108.02 652.489 2102.18 645.804 2096.59 637.072C2091.96 629.437 2089.65 620.839 2089.65 611.283V527.783H2065.2V488.897H2089.65V420.946H2126.15V488.897H2171.42V527.783H2126.15Z" fill="#706F6F"/>
<path d="M2344.06 526.554L2310.12 538.016C2304.51 529.83 2299.04 525.736 2293.69 525.736H2273.98C2267.41 525.736 2259.99 531.61 2251.71 543.339V665.725H2215.21V525.324L2212.3 488.897H2247.7L2249.53 498.718C2259.26 490.804 2267.05 486.85 2272.89 486.85H2294.79C2304.04 486.85 2313.05 490.266 2321.8 497.083C2325.69 500.359 2329.95 504.931 2334.58 510.799C2339.2 516.673 2342.37 521.922 2344.07 526.56L2344.06 526.554Z" fill="#706F6F"/>
<path d="M2509.05 665.732H2473.28L2471.82 655.499C2462.09 663.42 2454.42 667.367 2448.82 667.367H2421.45C2410.98 667.367 2402.1 664.503 2394.8 658.768C2387.5 652.768 2381.66 646.077 2377.28 638.714C2372.9 632.162 2370.7 623.843 2370.7 613.742V488.897H2407.21V612.925C2407.21 614.294 2407.32 615.244 2407.57 615.789C2409.52 619.616 2413.53 623.71 2419.62 628.069C2420.1 628.341 2420.83 628.481 2421.81 628.481H2447.73C2449.43 628.481 2452.84 626.507 2457.95 622.547C2463.06 618.593 2466.82 615.118 2469.26 612.108V488.897H2505.76V629.298L2509.05 665.726L2509.05 665.732Z" fill="#706F6F"/>
<path d="M2775.89 665.732H2739.39V541.299C2739.39 540.481 2739.26 539.664 2739.02 538.84C2736.83 534.202 2733.05 529.976 2727.7 526.148C2727.21 525.883 2726.24 525.736 2724.79 525.736H2708C2702.89 525.736 2695.82 531.199 2686.82 542.11V665.725H2650.32V541.292C2650.32 540.202 2650.2 539.385 2649.96 538.834C2648 534.74 2643.99 530.514 2637.91 526.142C2637.42 525.876 2636.45 525.73 2634.99 525.73H2618.2C2616.74 525.73 2615.22 526.075 2613.64 526.753C2612.05 527.437 2610.65 528.122 2609.44 528.8C2608.21 529.484 2606.88 530.58 2605.42 532.076C2603.96 533.577 2602.87 534.734 2602.14 535.558C2601.41 536.375 2600.37 537.677 2599.04 539.445C2597.7 541.226 2596.91 542.249 2596.67 542.515V665.725H2560.17V525.324L2556.52 488.897H2592.29L2594.11 498.313C2603.6 490.678 2611.27 486.85 2617.11 486.85H2635.37C2645.59 486.85 2654.47 489.854 2662.01 495.854C2664.93 498.313 2668.46 501.861 2672.6 506.499L2680.63 499.542C2690.6 491.09 2699.36 486.85 2706.91 486.85H2725.16C2735.38 486.85 2744.26 489.854 2751.81 495.854C2759.35 502.134 2765.19 508.685 2769.33 515.503C2773.71 522.055 2775.9 530.381 2775.9 540.475V665.732H2775.89Z" fill="#706F6F"/>
<path d="M1660.72 931.53C1657.84 938.62 1654.74 944.382 1651.43 948.807C1637.04 966.749 1623.44 975.719 1610.62 975.719H1566.81C1560.62 975.719 1554.2 973.839 1547.57 970.071C1544.25 968.078 1539.93 964.483 1534.62 959.273C1529.31 954.07 1525.67 949.917 1523.67 946.814C1520.36 941.943 1518.7 936.075 1518.7 929.205V819.563C1518.7 812.918 1520.36 807.163 1523.67 802.286C1525.88 799.19 1529.65 794.924 1534.96 789.495C1540.27 784.072 1544.47 780.471 1547.57 778.697C1554.21 774.936 1560.51 773.048 1566.48 773.048H1610.62C1624.33 773.048 1637.93 782.019 1651.43 799.96C1653.86 802.844 1656.96 808.492 1660.72 816.905L1634.17 824.547C1630.63 814.579 1623.33 806.167 1612.27 799.296C1611.39 799.077 1610.5 798.964 1609.61 798.964H1568.13C1567.02 798.964 1566.03 799.19 1565.14 799.628C1562.71 800.957 1559.56 803.509 1555.69 807.27C1551.81 811.038 1548.88 814.473 1546.9 817.569C1546.45 818.234 1546.23 819.676 1546.23 821.889V928.872C1546.23 931.53 1548.6 935.185 1553.37 939.837C1558.13 944.488 1562.05 947.591 1565.15 949.139C1566.03 949.585 1567.03 949.804 1568.14 949.804H1609.62C1610.95 949.804 1612.05 949.585 1612.93 949.139C1616.92 946.927 1621.01 943.491 1625.21 938.84C1629.41 934.188 1632.4 929.431 1634.17 924.553L1660.72 931.53Z" fill="#706F6F"/>
<path d="M1827.29 974.058H1801.74L1800.08 962.761C1789.9 971.4 1781.28 975.719 1774.2 975.719H1745C1736.15 975.719 1728.62 973.506 1722.43 969.074C1716.46 964.649 1711.25 959.439 1706.83 953.459C1703.07 948.368 1701.19 942.056 1701.19 934.52V928.208C1701.19 920.679 1703.07 914.366 1706.83 909.27C1711.26 903.289 1716.46 898.086 1722.43 893.654C1728.18 889.448 1735.71 887.341 1745 887.341H1798.75V871.061C1798.75 869.294 1798.42 867.852 1797.76 866.742C1794.44 861.426 1789.9 857.333 1784.15 854.449C1782.83 853.784 1781.5 853.452 1780.17 853.452H1748.98C1744.56 853.452 1739.47 857.22 1733.72 864.748L1729.41 870.729L1705.18 863.419C1707.17 858.768 1710.43 853.618 1714.97 847.97C1719.5 842.322 1723.54 838.169 1727.08 835.511C1733.27 831.304 1740.9 829.198 1749.98 829.198H1780.51C1789.58 829.198 1797.21 831.417 1803.41 835.843C1810.04 840.72 1815.35 845.923 1819.33 851.459C1822.87 856.555 1824.64 862.981 1824.64 870.729V947.81L1827.3 974.058H1827.29ZM1798.75 934.188V910.931H1745.33C1744 910.931 1742.67 911.157 1741.35 911.595C1738.91 912.924 1736.31 914.978 1733.55 917.742C1730.78 920.513 1728.84 923.005 1727.74 925.217C1727.29 926.108 1727.07 927.211 1727.07 928.54V934.188C1727.07 935.517 1727.29 936.627 1727.74 937.511C1730.17 942.388 1734.71 946.707 1741.34 950.468C1743.33 951.133 1744.66 951.465 1745.32 951.465H1773.2C1774.3 951.465 1775.3 951.246 1776.19 950.801C1787.03 945.711 1794.55 940.169 1798.75 934.188Z" fill="#706F6F"/>
<path d="M2076.84 974.058H2050.96V871.393C2050.96 869.845 2050.74 868.629 2050.29 867.739C2047.63 862.423 2043.21 857.997 2037.02 854.449C2035.91 853.784 2034.36 853.452 2032.37 853.452H2017.44C2014.56 853.452 2010.19 855.558 2004.33 859.765C1998.46 863.978 1994.54 867.406 1992.55 870.064V974.058H1967V871.393C1967 869.845 1966.78 868.629 1966.33 867.739C1965.22 865.526 1963.29 863.034 1960.53 860.263C1957.75 857.499 1955.16 855.445 1952.72 854.116C1952.06 853.678 1950.51 853.452 1948.08 853.452H1930.49C1924.95 853.897 1917.1 860.097 1906.93 872.058V974.058H1881.04V857.439L1878.72 830.859H1904.6L1905.93 842.82C1916.1 833.743 1924.73 829.198 1931.81 829.198H1951.72C1959.24 828.759 1965.77 830.859 1971.3 835.511C1972.63 836.62 1974.45 838.78 1976.77 841.989C1979.1 845.206 1980.59 847.139 1981.25 847.804C1984.12 844.927 1990.21 840.388 1999.5 834.182C2005.7 830.859 2011.34 829.198 2016.43 829.198H2038.66C2043.97 829.198 2049.61 831.417 2055.59 835.843C2061.78 840.494 2067.09 845.81 2071.52 851.791C2075.05 856.887 2076.82 863.2 2076.82 870.729V974.058H2076.84Z" fill="#706F6F"/>
<path d="M2253.04 933.524C2253.04 941.278 2251.16 947.704 2247.4 952.794C2242.53 959.439 2237.22 964.868 2231.47 969.074C2225.27 973.506 2217.75 975.719 2208.91 975.719H2183.02C2175.28 975.719 2166.76 971.513 2157.47 963.094V1031.54H2131.59V857.439L2129.27 830.859H2155.15L2156.48 843.152C2166.21 833.849 2175.06 829.198 2183.02 829.198H2208.91C2217.53 829.198 2225.05 831.524 2231.47 836.175C2237.67 840.827 2242.98 846.143 2247.4 852.123C2251.16 857.439 2253.04 863.865 2253.04 871.393V933.524ZM2227.16 932.859V872.058C2227.16 870.064 2226.93 868.848 2226.5 868.403C2225.17 865.971 2223.12 863.366 2220.36 860.595C2217.58 857.831 2214.99 855.778 2212.55 854.449C2210.56 853.784 2209.24 853.452 2208.57 853.452H2184.01C2180.91 853.452 2176.21 855.838 2169.91 860.595C2163.61 865.36 2159.46 869.181 2157.47 872.058V932.527C2159.46 935.411 2163.61 939.285 2169.91 944.156C2176.22 949.033 2180.92 951.465 2184.01 951.465H2208.57C2209.9 951.465 2211.23 951.246 2212.55 950.801C2214.99 949.472 2217.64 947.312 2220.52 944.322C2223.39 941.331 2225.39 938.733 2226.5 936.514C2226.93 935.63 2227.16 934.414 2227.16 932.859Z" fill="#706F6F"/>
<path d="M2427.26 974.058H2401.38L2400.05 962.429C2390.53 971.068 2381.91 975.387 2374.17 975.387H2349.28C2340.2 975.387 2332.58 973.174 2326.38 968.742C2320.19 964.091 2314.88 958.775 2310.45 952.794C2306.91 947.704 2305.15 941.391 2305.15 933.856V830.859H2331.03V933.192C2331.03 935.185 2331.13 936.408 2331.36 936.846C2334.89 942.827 2339.65 947.372 2345.63 950.468C2346.51 950.914 2347.83 951.133 2349.61 951.133H2373.17C2376.04 951.133 2380.52 948.973 2386.61 944.654C2392.69 940.335 2396.73 936.846 2398.73 934.188V830.859H2424.61V947.478L2427.27 974.058H2427.26Z" fill="#706F6F"/>
<path d="M2600.15 863.419L2575.26 871.726C2572.82 867.3 2569.72 863.147 2565.97 859.266C2562.2 855.392 2558.78 853.452 2555.68 853.452H2520.18C2518.4 853.452 2517.07 853.678 2516.2 854.117C2511.77 856.336 2507.78 860.097 2504.25 865.413C2503.58 866.523 2503.25 867.965 2503.25 869.732V879.367C2503.25 881.361 2504.08 883.135 2505.74 884.683C2507.4 886.238 2509.44 887.122 2511.88 887.341L2566.97 891.328C2576.04 891.993 2583.78 895.428 2590.2 901.628C2596.61 907.834 2599.82 915.25 2599.82 923.889V935.185C2599.82 942.056 2597.83 948.368 2593.85 954.123C2589.64 960.329 2584.77 965.313 2579.25 969.074C2572.83 973.506 2565.32 975.719 2556.68 975.719H2516.86C2508.23 975.719 2500.71 973.506 2494.29 969.074C2485.67 963.094 2478.14 953.904 2471.73 941.498L2496.61 933.191C2498.38 936.514 2500.87 940.003 2504.08 943.657C2507.28 947.312 2510 949.697 2512.22 950.801C2513.1 951.246 2514.42 951.465 2516.2 951.465H2556.35C2561.88 951.465 2567.41 947.259 2572.94 938.84C2573.61 937.956 2573.94 936.514 2573.94 934.52V923.556C2573.94 921.563 2573.11 919.795 2571.45 918.24C2569.79 916.692 2567.63 915.808 2564.98 915.582L2509.89 911.928C2500.81 911.263 2493.13 907.834 2486.82 901.628C2480.52 895.428 2477.37 888.006 2477.37 879.367V869.732C2477.37 862.423 2479.25 856.11 2483.01 850.794C2487.21 844.594 2492.08 839.611 2497.61 835.843C2504.02 831.417 2511.54 829.198 2520.18 829.198H2554.69C2563.31 829.198 2570.84 831.417 2577.26 835.843C2586.1 842.049 2593.74 851.239 2600.15 863.419H2600.15Z" fill="#706F6F"/>
<path d="M2879.22 930.866C2879.22 937.737 2877.45 943.936 2873.91 949.472C2872.58 951.465 2869.93 954.515 2865.95 958.608C2861.97 962.708 2858.76 965.532 2856.32 967.081C2849.91 971.732 2842.5 974.058 2834.09 974.058H2740.51V774.709H2834.09C2842.27 774.709 2849.69 777.148 2856.32 782.019C2858.76 783.793 2861.97 786.617 2865.95 790.491C2869.93 794.372 2872.58 797.302 2873.91 799.296C2877.45 804.392 2879.22 810.818 2879.22 818.566V842.82C2879.22 849.465 2878.01 854.781 2875.57 858.768C2873.14 862.755 2869.05 867.519 2863.29 873.055C2869.04 878.371 2873.14 883.082 2875.57 887.175C2878.01 891.275 2879.22 896.644 2879.22 903.289V930.866ZM2852.01 842.156V818.898C2852.01 817.131 2851.79 816.021 2851.35 815.576C2849.57 812.479 2846.92 809.21 2843.38 805.775C2839.84 802.346 2836.63 800.625 2833.76 800.625H2767.72V860.429H2834.09C2836.75 860.429 2839.95 858.715 2843.71 855.279C2847.47 851.851 2850.02 848.694 2851.35 845.81C2851.79 844.927 2852.01 843.711 2852.01 842.156ZM2852.01 930.201V903.621C2852.01 902.292 2851.79 901.189 2851.35 900.299C2850.24 898.086 2848.24 895.481 2845.37 892.491C2842.5 889.501 2839.84 887.454 2837.41 886.345C2837.18 886.125 2836.08 886.012 2834.09 886.012H2767.72V948.143H2833.76C2836.63 948.143 2839.95 946.428 2843.71 942.993C2847.47 939.564 2850.02 936.408 2851.35 933.524C2851.79 932.64 2852.01 931.53 2852.01 930.201Z" fill="#706F6F"/>
<path d="M3053.11 934.188C3053.11 941.724 3051.33 948.036 3047.8 953.126C3043.37 959.107 3038.06 964.423 3031.87 969.074C3025.68 973.506 3018.04 975.719 3008.97 975.719H2975.79C2966.71 975.719 2959.08 973.506 2952.89 969.074C2946.69 964.423 2941.38 959.107 2936.96 953.126C2933.42 948.036 2931.65 941.724 2931.65 934.188V870.729C2931.65 863.2 2933.42 856.888 2936.96 851.791C2941.39 845.81 2946.7 840.494 2952.89 835.843C2959.08 831.417 2966.71 829.198 2975.79 829.198H3008.97C3018.04 829.198 3025.67 831.417 3031.87 835.843C3038.06 840.494 3043.37 845.81 3047.8 851.791C3051.33 856.888 3053.11 863.2 3053.11 870.729V934.188ZM2979.43 801.289H2951.89V771.719H2979.43V801.289ZM3026.56 937.843C3027 936.959 3027.23 935.517 3027.23 933.524V871.393C3027.23 869.4 3026.89 867.852 3026.23 866.742C3022.91 861.871 3018.59 857.884 3013.28 854.781C3011.96 853.897 3010.41 853.452 3008.64 853.452H2976.45C2975.12 853.452 2973.79 853.784 2972.47 854.449C2966.28 857.552 2961.52 861.984 2958.2 867.739C2957.76 868.629 2957.54 869.845 2957.54 871.393V933.524C2957.54 935.079 2957.76 936.295 2958.2 937.178C2959.31 939.398 2961.35 941.83 2964.34 944.488C2967.33 947.146 2970.04 949.139 2972.48 950.468C2973.81 951.133 2975.14 951.465 2976.46 951.465H3008.65C3009.98 951.465 3011.3 951.133 3012.63 950.468C3019.26 946.707 3023.91 942.494 3026.56 937.843ZM3032.86 801.289H3005.32V771.719H3032.86V801.289Z" fill="#706F6F"/>
<path d="M3227.65 933.524C3227.65 941.059 3225.77 947.478 3222.01 952.794C3217.58 958.775 3212.27 964.09 3206.08 968.742C3199.66 973.393 3192.15 975.719 3183.51 975.719H3157.63C3149.67 975.719 3140.82 971.068 3131.09 961.765L3129.76 974.058H3103.87L3106.2 947.478V774.709H3132.08V841.823C3141.37 833.411 3149.89 829.198 3157.63 829.198H3183.51C3192.36 829.198 3199.88 831.417 3206.08 835.843C3211.83 840.056 3217.14 845.478 3222.01 852.123C3225.77 857.22 3227.65 863.645 3227.65 871.393V933.524ZM3201.77 932.859V872.058C3201.77 870.51 3201.55 869.294 3201.1 868.403C3197.79 861.984 3193.14 857.22 3187.17 854.117C3186.29 853.678 3184.96 853.452 3183.19 853.452H3158.63C3155.53 853.452 3150.83 855.838 3144.53 860.595C3138.22 865.36 3134.08 869.181 3132.08 872.058V932.527C3134.08 935.411 3138.22 939.285 3144.53 944.156C3150.83 949.033 3155.53 951.465 3158.63 951.465H3183.19C3184.52 951.465 3185.85 951.133 3187.17 950.468C3189.38 949.365 3191.98 947.372 3194.97 944.488C3197.95 941.611 3200 938.953 3201.11 936.514C3201.55 935.63 3201.77 934.414 3201.77 932.859H3201.77Z" fill="#706F6F"/>
<path d="M3310.61 974.058H3284.73L3281.74 952.462V774.709H3307.29V948.475L3310.61 974.058H3310.61Z" fill="#706F6F"/>
<path d="M3395.22 801.289H3365.35V771.719H3395.22V801.289ZM3393.24 974.058H3367.35V830.859H3393.24V974.058Z" fill="#706F6F"/>
<path d="M3569.77 974.058H3543.89V871.393C3543.89 869.4 3543.78 868.184 3543.56 867.739C3542.45 865.526 3540.41 862.981 3537.42 860.097C3534.43 857.22 3531.72 855.226 3529.29 854.117C3528.41 853.678 3527.08 853.452 3525.31 853.452H3501.75C3498.87 853.452 3494.39 855.671 3488.31 860.097C3482.22 864.529 3478.18 868.071 3476.19 870.729V974.058H3450.31V857.439L3447.65 830.859H3473.53L3474.86 842.488C3484.6 833.63 3493.22 829.198 3500.74 829.198H3525.64C3534.71 829.198 3542.34 831.417 3548.53 835.843C3554.73 840.494 3560.04 845.81 3564.46 851.791C3568 856.887 3569.77 863.2 3569.77 870.729V974.058Z" fill="#706F6F"/>
<path d="M3747.96 830.859L3745.3 857.771V989.341C3745.3 997.089 3743.53 1003.51 3740 1008.61C3735.57 1014.59 3730.26 1019.91 3724.07 1024.56C3717.65 1029.21 3710.01 1031.54 3701.17 1031.54H3667.98C3659.36 1031.54 3651.83 1029.21 3645.42 1024.56C3641.44 1021.9 3637.23 1017.8 3632.81 1012.27C3628.38 1006.72 3625.17 1001.52 3623.18 996.651L3647.41 988.677C3649.41 992.664 3652.44 996.757 3656.54 1000.97C3660.63 1005.18 3664.34 1007.28 3667.65 1007.28H3700.84C3702.17 1007.28 3703.5 1006.95 3704.82 1006.29C3707.02 1004.96 3709.96 1002.57 3713.61 999.143C3717.26 995.707 3719.19 993.102 3719.42 991.335V963.094C3710.13 971.513 3701.61 975.719 3693.87 975.719H3666.66C3657.58 975.719 3649.95 973.506 3643.76 969.074C3638 964.868 3632.69 959.439 3627.83 952.794C3624.29 947.704 3622.52 941.278 3622.52 933.524V871.393C3622.52 863.645 3624.29 857.22 3627.83 852.123C3632.69 845.478 3638 840.056 3643.76 835.843C3649.95 831.417 3657.58 829.198 3666.66 829.198H3693.87C3701.61 829.198 3710.57 833.849 3720.75 843.152L3722.07 830.859H3747.96H3747.96ZM3719.76 932.195V872.722C3716.88 869.4 3712.46 865.36 3706.49 860.595C3700.51 855.838 3695.97 853.452 3692.88 853.452H3666.99C3666.33 853.452 3665 853.784 3663.01 854.449C3656.16 858.436 3651.4 863.087 3648.75 868.403C3648.3 869.294 3648.08 870.51 3648.08 872.058V932.859C3648.08 934.414 3648.3 935.63 3648.75 936.514C3649.85 938.953 3651.95 941.664 3655.05 944.654C3658.15 947.644 3660.8 949.697 3663.02 950.801C3663.9 951.246 3665.23 951.465 3667 951.465H3692.88C3694.43 951.465 3695.42 951.359 3695.87 951.133C3705.83 946.043 3713.79 939.73 3719.77 932.195H3719.76Z" fill="#706F6F"/>
<path d="M3923.84 941.498C3921.63 946.594 3918.47 951.744 3914.39 956.947C3910.29 962.157 3906.14 966.197 3901.94 969.074C3895.74 973.506 3888.22 975.719 3879.37 975.719H3846.52C3837.44 975.719 3829.82 973.506 3823.62 969.074C3817.43 964.423 3812.12 959.107 3807.69 953.126C3803.93 948.036 3802.05 941.724 3802.05 934.188V870.729C3802.05 863.2 3803.93 856.887 3807.69 851.791C3812.12 845.81 3817.43 840.494 3823.62 835.843C3829.82 831.417 3837.44 829.198 3846.52 829.198H3879.71C3888.78 829.198 3896.4 831.417 3902.6 835.843C3908.8 840.494 3914.11 845.81 3918.53 851.791C3922.07 856.887 3923.84 863.2 3923.84 870.729V913.589H3827.94V933.524C3827.94 935.079 3828.16 936.295 3828.61 937.178C3829.71 939.398 3831.59 941.83 3834.25 944.488C3836.91 947.146 3839.56 949.139 3842.22 950.468C3843.54 951.133 3844.98 951.465 3846.53 951.465H3880.04C3881.37 951.465 3882.7 951.133 3884.02 950.468C3886.23 949.365 3888.78 947.425 3891.66 944.654C3894.53 941.89 3896.52 939.398 3897.63 937.178L3899.63 933.524L3923.85 941.498H3923.84ZM3897.95 889.999V871.393C3897.95 869.4 3897.84 868.184 3897.62 867.739C3896.51 865.526 3894.47 863.087 3891.48 860.429C3888.5 857.771 3885.78 855.778 3883.35 854.449C3882.02 853.784 3880.7 853.452 3879.37 853.452H3846.52C3844.75 853.452 3843.42 853.784 3842.54 854.449C3835.68 858.216 3831.03 862.649 3828.61 867.739C3828.16 868.184 3827.94 869.4 3827.94 871.393V889.999H3897.96H3897.95Z" fill="#706F6F"/>
<path d="M4096.06 974.058H4070.18V871.393C4070.18 869.4 4070.06 868.184 4069.84 867.739C4068.73 865.526 4066.69 862.981 4063.7 860.097C4060.72 857.22 4058 855.226 4055.58 854.117C4054.69 853.678 4053.36 853.452 4051.6 853.452H4028.03C4025.16 853.452 4020.68 855.671 4014.59 860.097C4008.5 864.529 4004.47 868.071 4002.48 870.729V974.058H3976.6V857.439L3973.94 830.859H3999.82L4001.15 842.488C4010.88 833.63 4019.51 829.198 4027.03 829.198H4051.92C4060.99 829.198 4068.62 831.417 4074.82 835.843C4081.01 840.494 4086.32 845.81 4090.75 851.791C4094.28 856.887 4096.06 863.2 4096.06 870.729V974.058Z" fill="#706F6F"/>
</g>
<defs>
<clipPath id="clip0_63863_22">
<rect width="4096" height="1064" fill="white"/>
</clipPath>
</defs>
</svg>
