<?xml version="1.0" encoding="UTF-8"?>
<svg width="843" height="229" id="Ebene_2" xmlns="http://www.w3.org/2000/svg" version="1.1" viewBox="0 0 842.6 228.7">
  <!-- Generator: Adobe Illustrator 29.8.2, SVG Export Plug-In . SVG Version: 2.1.1 Build 3)  -->
  <defs>
    <style>
      .st0 {
        fill: #ffe300;
      }

      .st1 {
        fill: #707173;
      }
    </style>
  </defs>
  <rect class="st0" width="228.9" height="228.9"/>
  <path d="M211.7,42.9h-125.9l10.4,20.7c2.4,4.9,7.4,7.9,12.8,7.9h102.8c1.6,0,2.9-1.3,2.9-2.9v-22.9c0-1.6-1.3-2.9-2.9-2.9h0Z"/>
  <path d="M17.2,42.9h68.7l-10.4-20.7c-2.4-4.8-7.4-7.9-12.8-7.9H17.2c-1.6,0-2.9,1.3-2.9,2.9v22.9c0,1.6,1.3,2.9,2.9,2.9h0Z"/>
  <path d="M211.7,186h-68.7l10.4,20.7c2.4,4.9,7.4,7.9,12.8,7.9h45.5c1.6,0,2.9-1.3,2.9-2.9v-22.9c0-1.6-1.3-2.9-2.9-2.9h0Z"/>
  <path d="M17.2,186h125.9l-10.4-20.7c-2.4-4.9-7.4-7.9-12.8-7.9H17.1c-1.6,0-2.9,1.3-2.9,2.9v22.9c0,1.6,1.3,2.9,2.9,2.9h0Z"/>
  <path d="M211.7,114.4h-97.3l10.4-20.7c2.4-4.9,7.4-7.9,12.8-7.9h74.1c1.6,0,2.9,1.3,2.9,2.9v22.9c0,1.6-1.3,2.9-2.9,2.9Z"/>
  <path d="M17.2,114.4h97.3l-10.4,20.7c-2.4,4.9-7.4,7.9-12.8,7.9H17.2c-1.6,0-2.9-1.3-2.9-2.9v-22.9c0-1.6,1.3-2.9,2.9-2.9Z"/>
  <path class="st1" d="M277.2,176.8h-4.5v-32.6h4.5v32.6Z"/>
  <path class="st1" d="M310.2,176.8h-5.1l-13.7-24.9v24.9h-4.4v-32.6h5.3l13.6,25.1v-25.1h4.4v32.6Z"/>
  <path class="st1" d="M339.9,148.5h-15.5v9.9h14.6v4.2h-14.6v14.2h-4.5v-32.6h19.9v4.2h0Z"/>
  <path class="st1" d="M372.8,169.5c0,1.1-.3,2.1-.8,2.9-.3.5-.9,1.2-1.8,2s-1.6,1.4-2.1,1.8c-1.1.6-2.1.9-3.1.9h-8.6c-1,0-2-.3-3.1-.9-.5-.3-1.3-.9-2.1-1.8-.9-.9-1.5-1.5-1.8-2-.5-.7-.8-1.7-.8-2.9v-17.9c0-1.2.2-2.1.8-2.9.3-.5.9-1.2,1.8-2.1s1.6-1.5,2.1-1.8c1.1-.6,2.1-.9,3.1-.9h8.6c1,0,2.1.3,3.1.9.5.3,1.2.9,2.1,1.8.9.9,1.5,1.6,1.8,2.1.5.8.8,1.8.8,2.9v17.9h0ZM368.4,169.4v-17.7c0-.2,0-.3-.1-.5-.3-.5-.8-1.1-1.4-1.7s-1.2-1-1.6-1.2c-.1,0-.3-.1-.5-.1h-8.1c-.2,0-.3,0-.5.1-.5.2-1.2.8-2,1.6-.8.8-1.2,1.4-1.2,1.9v17.7c0,.4.4.9,1.2,1.8s1.5,1.3,1.9,1.6c.1,0,.3.1.5.1h8.1c.2,0,.3,0,.5-.1.5-.2,1.1-.8,1.9-1.5.8-.8,1.2-1.4,1.2-1.8h0Z"/>
  <path class="st1" d="M406.6,176.8h-4.8l-7.6-13.6h-7.5v13.6h-4.5v-32.6h15.3c1.4,0,2.6.4,3.6,1.1.4.3.9.8,1.6,1.4s1.1,1.1,1.3,1.5c.6.9.9,2,.9,3.1v4.9c0,1.1-.3,2.1-.9,3-.2.3-.6.8-1.3,1.5-.6.6-1.2,1.1-1.6,1.4-.8.6-1.6.9-2.4,1l7.9,13.7h0ZM400.4,156.1v-4.7c0-.4,0-.6,0-.6-.2-.4-.6-.8-1.2-1.4s-1.1-.9-1.4-.9h-11.1v10.5h10.8c.4,0,1-.3,1.6-.8.7-.5,1.1-1,1.3-1.5,0,0,0-.3,0-.6h0Z"/>
  <path class="st1" d="M443.8,176.8h-4.3v-25.9l-8.5,17.5h-2.9l-8.4-17.5v25.9h-4.4v-32.6h5.6l8.7,17.7,8.7-17.7h5.5v32.6h0Z"/>
  <path class="st1" d="M478.5,176.8h-4.8l-2.4-7.3h-14.1l-2.5,7.3h-4.7l11.3-32.6h5.9l11.3,32.6ZM469.9,165.3l-5.6-16.6-5.6,16.6h11.3Z"/>
  <path class="st1" d="M503.1,148.5h-9.3v28.3h-4.5v-28.3h-9.3v-4.2h23v4.2h0Z"/>
  <path class="st1" d="M514.9,176.8h-4.5v-32.6h4.5v32.6Z"/>
  <path class="st1" d="M529.6,158.5l12.7-14.2h5.9l-14.8,16.3,14.9,16.3h-5.9l-12.8-14.2h-.5v14.2h-4.5v-32.6h4.5v14.2h.5Z"/>
  <path class="st1" d="M297.2,228.7h-4.8l-7.6-13.6h-7.5v13.6h-4.5v-32.5h15.3c1.4,0,2.6.4,3.6,1.1.4.3.9.8,1.6,1.4s1.1,1.1,1.3,1.5c.6.9.9,2,.9,3.1v4.9c0,1.1-.3,2.1-.9,3-.2.3-.6.8-1.3,1.5s-1.2,1.1-1.6,1.4c-.8.6-1.6.9-2.4,1l7.9,13.7h0ZM291.1,208v-4.7c0-.4,0-.6,0-.6-.2-.4-.6-.8-1.2-1.4s-1.1-.9-1.4-1h-11.1v10.5h10.8c.4,0,1-.3,1.6-.8.7-.5,1.1-1,1.3-1.5,0,0,0-.3,0-.6h0Z"/>
  <path class="st1" d="M325.4,228.7h-20v-32.5h20v4.2h-15.5v9.9h14.6v4.2h-14.6v9.9h15.5v4.2h0Z"/>
  <path class="st1" d="M357.2,221.4c0,1.2-.2,2.1-.8,2.8-.3.5-.9,1.2-1.8,2s-1.6,1.4-2.1,1.8c-1.1.6-2.1.9-3.1.9h-7.3c-1,0-2.1-.3-3.1-.9-.5-.3-1.2-.9-2.1-1.8s-1.5-1.5-1.8-2c-.5-.8-.8-1.7-.8-2.8v-25.3h4.5v25.2c0,.4.4,1,1.3,1.8.9.8,1.5,1.3,2,1.5.1,0,.3.1.4.1h6.7c.2,0,.3,0,.5-.1.5-.2,1.1-.7,1.9-1.5.8-.8,1.2-1.4,1.2-1.8v-25.2h4.5v25.3h0Z"/>
  <path class="st1" d="M387.2,200.4h-9.3v28.3h-4.5v-28.3h-9.3v-4.2h23v4.2h0Z"/>
  <path class="st1" d="M414.4,228.7h-19.6v-32.5h4.5v28.3h15.2v4.2h0Z"/>
  <path class="st1" d="M426.5,228.7h-4.5v-32.5h4.5v32.5Z"/>
  <path class="st1" d="M458.9,228.7h-5.2l-13.7-24.9v24.9h-4.4v-32.5h5.3l13.6,25.1v-25.1h4.4v32.5Z"/>
  <path class="st1" d="M493.2,228.7h-4.3c0-.2-.1-.6-.2-1.1s-.2-.7-.2-.8c-.1,0-.3.2-.7.5-.3.3-.6.5-.8.6s-.4.3-.7.5c-.3.2-.6.3-.9.4-.3,0-.6.1-1,.1h-8.3c-1,0-2.1-.3-3.2-.9-.5-.3-1.2-.9-2.1-1.8s-1.5-1.5-1.8-2c-.5-.8-.8-1.8-.8-2.9v-17.9c0-1.1.3-2.1.8-2.9.4-.5,1-1.2,1.8-2.1.9-.9,1.5-1.5,2.1-1.8,1.1-.6,2.1-.9,3.2-.9h8.3c2.2,0,4.5,1.5,6.7,4.5.4.5.9,1.5,1.5,2.7l-4.3,1.2-.5-1.1c-.3-.5-.7-1.1-1.4-1.7s-1.2-1-1.6-1.3c-.1,0-.3-.1-.5-.1h-8c-.2,0-.3,0-.5.1-.4.2-1,.6-1.7,1.3-.7.6-1.1,1.2-1.4,1.7,0,.1-.1.3-.1.5v17.5c0,.4.4,1.1,1.2,1.9s1.5,1.4,2,1.6c0,0,.2,0,.4,0h7.8c.2,0,.3,0,.5-.1.5-.2,1.2-.8,2-1.6s1.2-1.4,1.2-1.9v-6.7h-7.4v-4.2h11.9v10.9c0,1.3.3,3.8.9,7.6h0Z"/>
  <path class="st1" d="M522,228.7h-20v-32.5h20v4.2h-15.5v9.9h14.7v4.2h-14.7v9.9h15.5v4.2h0Z"/>
  <path class="st1" d="M554.7,228.7h-5.2l-13.7-24.9v24.9h-4.4v-32.5h5.3l13.6,25.1v-25.1h4.4v32.5Z"/>
  <path class="st1" d="M597.9,221.4c0,1.2-.2,2.1-.8,2.8-.3.5-.9,1.2-1.8,2s-1.6,1.4-2.1,1.8c-1.1.6-2.1.9-3.1.9h-7.3c-1,0-2.1-.3-3.2-.9-.5-.3-1.2-.9-2.1-1.8s-1.5-1.5-1.8-2c-.5-.8-.8-1.7-.8-2.8v-25.3h4.5v25.2c0,.4.4,1,1.3,1.8.8.8,1.5,1.3,2,1.5.1,0,.3.1.4.1h6.7c.2,0,.3,0,.5-.1.5-.2,1.1-.7,1.9-1.5.8-.8,1.2-1.4,1.2-1.8v-25.2h4.5v25.3Z"/>
  <path class="st1" d="M629.9,228.7h-5.2l-13.7-24.9v24.9h-4.4v-32.5h5.3l13.6,25.1v-25.1h4.4v32.5Z"/>
  <path class="st1" d="M643.5,228.7h-4.5v-32.5h4.5v32.5Z"/>
  <path class="st1" d="M677,196.2l-10.8,32.5h-5.9l-10.8-32.5h4.7l9,27.8,9-27.8h4.7Z"/>
  <path class="st1" d="M703.4,228.7h-20v-32.5h20v4.2h-15.5v9.9h14.7v4.2h-14.7v9.9h15.5v4.2h0Z"/>
  <path class="st1" d="M736.9,228.7h-4.8l-7.7-13.6h-7.5v13.6h-4.5v-32.5h15.3c1.4,0,2.6.4,3.6,1.1.4.3.9.8,1.6,1.4s1.1,1.1,1.3,1.5c.6.9.9,2,.9,3.1v4.9c0,1.1-.3,2.1-.9,3-.2.3-.7.8-1.3,1.5-.7.6-1.2,1.1-1.6,1.4-.8.6-1.6.9-2.4,1l7.9,13.7h0ZM730.8,208v-4.7c0-.4,0-.6,0-.6-.2-.4-.6-.8-1.2-1.4s-1.1-.9-1.4-1h-11.1v10.5h10.8c.4,0,1-.3,1.7-.8.7-.5,1.1-1,1.3-1.5,0,0,0-.3,0-.6h0Z"/>
  <path class="st1" d="M769.1,221.4c0,1.2-.2,2.1-.8,2.9-.3.5-.9,1.2-1.8,2s-1.6,1.4-2.1,1.8c-1.1.6-2.1.9-3.1.9h-9.1c-2.3,0-4.5-1.5-6.7-4.4-.3-.4-.8-1.3-1.5-2.8l4.3-1.1.5,1c.3.6.8,1.2,1.4,1.8s1.2,1,1.7,1.3c.1,0,.3.1.5.1h8.7c.1,0,.3,0,.4-.1.5-.2,1.2-.8,2-1.5.8-.8,1.2-1.4,1.2-1.8v-3.3c0-.4-.1-.8-.4-1.2s-.5-.6-.9-.6l-14.8-3.8c-1.2-.3-2.1-1-2.8-2.1s-1-2.2-1-3.5v-3.3c0-1.2.2-2.1.8-2.9.3-.5.9-1.2,1.8-2.1s1.6-1.5,2.1-1.8c1.1-.6,2.1-.9,3.1-.9h8c2.2,0,4.5,1.5,6.7,4.4.4.5.9,1.4,1.5,2.8l-4.3,1.2-.5-1.1c-.3-.5-.8-1.1-1.4-1.7-.7-.6-1.2-1-1.7-1.3-.1,0-.2,0-.4,0h-7.5c-.1,0-.3,0-.5.1-.5.2-1.1.7-1.9,1.5s-1.2,1.4-1.2,1.8v3.1c0,.4.1.8.3,1.1s.5.5.8.6l14.7,3.9c1.2.3,2.2,1,2.9,2,.7,1,1.1,2.2,1.1,3.4v3.7h0Z"/>
  <path class="st1" d="M781.9,228.7h-4.5v-32.5h4.5v32.5Z"/>
  <path class="st1" d="M812.2,200.4h-9.3v28.3h-4.5v-28.3h-9.3v-4.2h23v4.2h0Z"/>
  <path class="st1" d="M842.6,196.2l-11,18.7v13.8h-4.5v-13.8l-10.9-18.7h4.9l8.3,14.2s.6-1.2,2-3.5,2.8-4.7,4.2-7.1l2.1-3.6h4.8Z"/>
  <path d="M287.2,107.2h-14.6V.4h14.6v106.8Z"/>
  <path d="M388.7,107.2h-16.9l-44.9-81.5v81.5h-14.4V.4h17.3l44.5,82.4V.4h14.4v106.8h0Z"/>
  <path d="M479.4,14.2h-50.7v32.6h48.1v13.9h-48.1v46.5h-14.6V.3h65.3v13.9h0Z"/>
</svg>